<?xml version="1.0" encoding="UTF-8"?>
<svg id="Layer_1" xmlns="http://www.w3.org/2000/svg" version="1.1" viewBox="0 0 24 24">
  <!-- Generator: Adobe Illustrator 30.0.0, SVG Export Plug-In . SVG Version: 2.1.1 Build 123)  -->
  <defs>
    <style>
      .st0 {
        fill: none;
        stroke: #000;
        stroke-linecap: round;
        stroke-linejoin: round;
        stroke-width: 2px;
      }
    </style>
  </defs>
  <path class="st0" d="M13,13.74c-.62.36-1.38.36-2,0L2.5,8.87c-.48-.27-.65-.88-.38-1.36.09-.16.22-.29.38-.38L11,2.26c.62-.36,1.38-.36,2,0l8.5,4.87c.48.27.65.88.38,1.36-.09.16-.22.29-.38.38l-8.5,4.87Z"/>
  <path class="st0" d="M20,14.28l1.5.85c.48.27.65.88.38,1.36-.09.16-.22.29-.38.38l-8.5,4.87c-.62.36-1.38.36-2,0l-8.5-4.87c-.48-.27-.65-.88-.38-1.36.09-.16.22-.29.38-.38l1.5-.85"/>
  <line class="st0" x1="9.77" y1="5.66" x2="14.43" y2="10.32"/>
  <line class="st0" x1="9.77" y1="10.32" x2="14.43" y2="5.66"/>
</svg>